<svg width="10in" height="10in" version="1.1" viewBox="0 0 254 254" xmlns="http://www.w3.org/2000/svg">
 <defs>
  <filter id="filter17522" x="-.5836" y="-.74571" width="2.1672" height="2.4914" color-interpolation-filters="sRGB">
   <feGaussianBlur stdDeviation="1.7934998"/>
  </filter>
 </defs>
 <g>
  <circle cx="127" cy="127" r="123.82" fill="#86b2ff" fill-rule="evenodd" stroke="#000" stroke-width="6.35"/>
  <g fill="none" stroke="#000" stroke-linecap="round" stroke-linejoin="round">
   <g stroke-width="10.16">
    <path d="m127 6.35v15.875"/>
    <path d="m127 231.78v15.875"/>
    <path d="m6.35 127h15.875"/>
    <path d="m231.78 127h15.875"/>
   </g>
   <path d="m127 127 77.402-48.683" stroke-width="8.89"/>
   <path d="m127 127v63.5" stroke-width="8.89"/>
  </g>
  <path d="m65.296 154.45c1.0876-45.712-20.025-51.313-20.617-68.724-0.59264-17.411 1.8147-25.36 13.745-34.362 11.93-9.002 27.797-9.7643 41.234 0 13.437 9.7643 15.017 18.115 13.745 34.362-1.2719 16.247-21.927 22.848-20.617 68.724-12.626 1.0154-13.112 0.7949-27.49 0z" fill="#ffc827" stroke="#000" stroke-linecap="round" stroke-linejoin="round" stroke-width="6.35"/>
  <g fill="none" stroke-linecap="round" stroke-linejoin="round">
   <g stroke="#000" stroke-width="6.35">
    <path d="m66.146 163.78c14.985 1.5269 12.546 1.1514 26.723 0.52917"/>
    <path d="m66.543 172.77c14.985 1.5269 11.223 1.1514 25.4 0.52917"/>
    <path d="m67.072 181.77c14.985 1.5269 9.6353 1.1514 23.812 0.52917"/>
   </g>
   <path d="m81.227 60.59c8.1767 1.1592 14.635 7.2161 18.256 14.288" filter="url(#filter17522)" opacity=".7439" stroke="#fff" stroke-width="12.7"/>
  </g>
 </g>
</svg>
