<svg width="960" height="960" viewBox="0 0 254 254" xmlns="http://www.w3.org/2000/svg"><defs><filter style="color-interpolation-filters:sRGB" id="a" x="-.584" y="-.746" width="2.167" height="2.491"><feGaussianBlur stdDeviation="1.793"/></filter></defs><circle style="fill:#d5b2ff;fill-opacity:1;fill-rule:evenodd;stroke:#000;stroke-width:6.35;stroke-miterlimit:4;stroke-dasharray:none;stroke-opacity:1;opacity:1" cx="127" cy="127" r="123.824"/><path style="fill:none;stroke:#000;stroke-width:10.16;stroke-linecap:round;stroke-linejoin:round;stroke-miterlimit:4;stroke-dasharray:none;stroke-opacity:1" d="M127 6.35v15.875M127 231.775v15.875M6.35 127h15.875M231.775 127h15.875"/><path style="fill:none;stroke:#000;stroke-width:8.89;stroke-linecap:round;stroke-linejoin:round;stroke-miterlimit:4;stroke-dasharray:none;stroke-opacity:1" d="m127 127 87.986-50.8M127 127v63.5"/><path style="fill:#ffc827;fill-opacity:1;stroke:#000;stroke-width:6.35;stroke-linecap:round;stroke-linejoin:round;stroke-miterlimit:4;stroke-dasharray:none;stroke-opacity:1" d="M65.296 154.449c1.088-45.712-20.025-51.313-20.617-68.724-.593-17.412 1.815-25.36 13.745-34.362 11.93-9.002 27.797-9.765 41.234 0 13.437 9.764 15.017 18.114 13.745 34.362-1.272 16.247-21.927 22.847-20.617 68.724-12.626 1.015-13.112.795-27.49 0z"/><path style="fill:none;stroke:#000;stroke-width:6.35;stroke-linecap:round;stroke-linejoin:round;stroke-miterlimit:4;stroke-dasharray:none;stroke-opacity:1" d="M66.146 163.777c14.985 1.527 12.546 1.152 26.723.53M66.543 171.713c14.985 1.527 11.223 1.151 25.4.53M67.072 180.18c14.985 1.527 9.635 1.151 23.812.529"/><path style="fill:none;stroke:#fff;stroke-width:12.7;stroke-linecap:round;stroke-linejoin:round;stroke-miterlimit:4;stroke-dasharray:none;stroke-opacity:1;opacity:.74390244;filter:url(#a)" d="M81.227 60.59c8.177 1.159 14.635 7.216 18.256 14.287"/></svg>